<?xml version="1.0" encoding="UTF-8" standalone="no"?>
<!DOCTYPE svg PUBLIC "-//W3C//DTD SVG 1.1//EN" "http://www.w3.org/Graphics/SVG/1.1/DTD/svg11.dtd">
<!-- Created with Vectornator (http://vectornator.io/) -->
<svg height="100%" stroke-miterlimit="10" style="fill-rule:nonzero;clip-rule:evenodd;stroke-linecap:round;stroke-linejoin:round;" version="1.1" viewBox="0 0 140 34" width="100%" xml:space="preserve" xmlns="http://www.w3.org/2000/svg" xmlns:vectornator="http://vectornator.io" xmlns:xlink="http://www.w3.org/1999/xlink">
<defs/>
<g id="Untitled" vectornator:layerName="Untitled">
<path d="M18.838 31.2985L6.43562 31.2985L6.43562 2.50942L18.838 2.50942C20.6218 2.53546 22.1062 2.74379 23.2911 3.13442C25.3093 3.79848 26.9434 5.01593 28.1934 6.78676C29.196 8.21905 29.8796 9.76853 30.2442 11.4352C30.6088 13.1019 30.7911 14.6904 30.7911 16.2008C30.7911 20.0289 30.0229 23.2711 28.4864 25.9274C26.4031 29.5081 23.1869 31.2985 18.838 31.2985ZM23.3106 9.85317C22.3861 8.29067 20.5567 7.50942 17.8223 7.50942L12.2755 7.50942L12.2755 26.2985L17.8223 26.2985C20.6609 26.2985 22.64 24.8987 23.7598 22.0993C24.3718 20.5628 24.6778 18.7334 24.6778 16.611C24.6778 13.6813 24.2221 11.4287 23.3106 9.85317Z" fill="#d79491" opacity="1" stroke="none"/>
<path d="M38.2637 2.37457L44.2403 2.37457L44.2403 31.1636L38.2637 31.1636L38.2637 2.37457Z" fill="#d79491" opacity="1" stroke="none"/>
<path d="M52.7325 2.37457L58.7481 2.37457L58.7481 25.9879L73.0059 25.9879L73.0059 31.1636L52.7325 31.1636L52.7325 2.37457Z" fill="#d79491" opacity="1" stroke="none"/>
<path d="M98.588 25.2457L87.9825 25.2457L85.9903 31.1636L79.7012 31.1636L89.9747 2.37457L96.7716 2.37457L106.967 31.1636L100.443 31.1636L98.588 25.2457ZM96.9083 20.2847L93.3145 8.9566L89.6036 20.2847L96.9083 20.2847Z" fill="#d79491" opacity="1" stroke="none"/>
<path d="M135.014 31.1636L128.998 31.1636L117.24 10.7144L117.24 31.1636L111.635 31.1636L111.635 2.37457L117.943 2.37457L129.408 22.4722L129.408 2.37457L135.014 2.37457L135.014 31.1636Z" fill="#d79491" opacity="1" stroke="none"/>
</g>
</svg>
